<?xml version="1.0" encoding="UTF-8"?>
<svg width="512pt" height="512pt" version="1.1" viewBox="0 0 512 512" xmlns="http://www.w3.org/2000/svg">
 <path d="m355.03 123.49c-1.3984-23.66-25.578-38.094-46.148-27.281-3.8359 2.0234-7.418 4.5195-10.855 7.2539 4.8086-13.715 6.293-28.145 3.1133-38.43-6.3164-20.465-37.996-27.25-53.996-14.895-16.754 12.934-12.84 33.465-10.648 53.242-2.1914-4.5273-4.8828-8.8164-8.3594-12.691-9.3438-10.426-27.348-15.324-40.711-10.707-15.352 5.3047-18.023 23.848-9.2227 36.402 6.5312 9.3398 17.773 12.59 28.156 17.074-12.09-4.4336-24.121-8.9805-37.238-9.5781-8.832-0.39844-16.926 0.93359-24.16 6.2344-7.4297 5.4531-7.6836 17.547-7.0352 25.684 1.6016 20.105 16.82 37.406 37.852 37.352 3.8047-0.011719 7.4102-0.56641 10.871-1.4961-3.8008 3.8516-7.418 7.7617-10.809 11.59-5.8711 6.6289-9.8086 12.676-8.6523 21.738 1.1172 8.7383 8.9844 14.504 16.562 17.496 16.43 6.4883 42.605 2.8477 53.227-12.496 5.0078-7.2188 6.1641-16.992 6.3984-26.023 6.7891 46.316-1.543 94.02 1.9414 140.8-19.316-21.355-48.148-34.848-71.617-49.992-1.125-0.72656-9.457-2.8125-8.2227 0.875 6.1836 18.477 15.254 35.211 30.422 47.801 15.242 12.652 34.648 19.461 53.176 25.707 0.078126 0.054687 0.15234 0.11328 0.23438 0.17578-0.12109 0.73047-0.24219 1.4375-0.28516 2.0742-2.5273 33.094-4.6094 66.402-2.3516 99.562 0.1875 2.8828 8.207 5.0742 9.7891 2.625 2.0625-3.1953 1.8633-2.6094 2.7148-6.5117 0.3125-1.4141-1.0273-2.668-2.8359-3.4609-1.6602-32.145-0.51172-65.465 3.7344-97.285 13.039-19.883 28.57-38.035 41.277-58.168 12.016-19.043 22.301-41.23 17.832-64.211-0.64844-3.3594-7.4844-4.4844-9.7852-2.6172-30.957 25.109-43.836 61.363-54.332 98.227-2.6055-49.746 6.7188-100.44-4.3125-149.28 4.2695 5.7539 7.9102 12.164 11.621 17.352 7.2383 10.117 15.953 19.047 28.344 22.195 16.836 4.2695 48.395-7.3047 45.211-28.688-2.2383-15.012-18.023-26.281-32.219-32.988 2.7188-0.56641 5.3203-1.1914 7.7227-1.8438 19.902-5.4062 45.016-18.941 43.598-42.82zm-33.512-24.523c11.98-5.0273 19.457 8.3828 22.43 18.152 6.168 20.297-14.352 34.34-30.383 40.867-5.2031 2.1094-12.578 4.5117-20.332 5.9297-8.8125-3.0156-19.16-4.8555-28.707-3.7227 1.1836-4.668 0.10156-9.7383-2.707-13.926 14.07-4.8008 25.793-20.438 35.789-29.926 7.1523-6.7734 14.746-13.523 23.91-17.375zm-79.969 45.578c0.9375 0.28125 1.9219 0.45703 2.832 0.50781 0.082032 0.14453 0.17578 0.27734 0.27734 0.41016-1.5664 0-4.2383 0.375-3.5625 2.2109 0.33203 0.90625 0.95703 1.6211 1.7266 2.1758-0.035156 0-0.070312-0.003906-0.097656-0.003906-0.52734 0-0.94531 0.039062-1.3164 0.10938-0.53125-1.6484-2.6992-2.5742-4.2461-2.9883 1.3906-0.97266 2.8555-1.7812 4.3867-2.4219zm9.6406 18.691c-0.47266-0.21094-0.96094-0.375-1.4727-0.49219-0.085938-0.16016-0.17969-0.30078-0.29297-0.42969 0.74219 0.078125 1.4805 0.078125 2.207-0.078125 0.15234-0.035156 0.38281-0.09375 0.63672-0.18359-0.011719 0.011719-0.015625 0.015625-0.027344 0.035157-0.32031 0.39062-0.67188 0.77734-1.0508 1.1484zm-16.035 1.2852c-0.011719-0.015625-0.03125-0.027343-0.035156-0.039062 0.47656 0.28125 0.97266 0.51562 1.5039 0.70312-0.27734 0.039062-0.56641 0.10938-0.85938 0.19531-0.20703-0.28906-0.39453-0.58203-0.60938-0.85938zm-1.9766-1.7539c0.18359 0.28125 0.40625 0.53125 0.63672 0.74609-0.27734-0.14453-0.56641-0.27734-0.87891-0.39453 0.097656-0.10547 0.17578-0.22266 0.24219-0.35156zm10.422 4.8945c-0.003906 0-0.003906 0 0 0-0.74609-0.85156-1.75-1.4844-2.8477-1.9062 0.67188-0.078125 1.5625-0.26562 2.0898-0.70312 0.49219 0.21094 0.99219 0.375 1.4531 0.49219 0.039062 0.003906 0.078125 0.015625 0.10938 0.027343 0.14844 0.51563 0.60938 0.99219 1.1016 1.3789-0.62109 0.26562-1.2539 0.5-1.9062 0.71094zm10.512-10.953c-0.98828-1.418-2.7969-2.2109-4.582-2.543-0.11328-0.84375-1.168-1.9102-2.5-2.7734 0.039062 0.011719 0.082031 0.015625 0.11719 0.027344 0.27734 0.035156 0.66406 0.0625 1.0898 0.050781 0.90234 0.875 2.2578 1.418 3.4141 1.7344 1.0859 0.29297 2.2578 0.41797 3.3828 0.26562 0.078125 1.0742 0.003906 2.1367-0.20312 3.1797-0.24219 0.003906-0.48828 0.027343-0.71875 0.058593zm-0.76562-8.7852c-0.10938-0.027344-0.21875-0.066406-0.32812-0.09375-0.13281-0.039063-0.28516-0.066406-0.42969-0.10156 0.17578-0.050781 0.36328-0.12109 0.55469-0.21094 0.070313 0.13672 0.14062 0.26953 0.20312 0.40625zm-13.031 4.332c0.070312 0.09375 0.14844 0.18359 0.23047 0.27734-0.33984-0.03125-0.6875-0.050781-1.0352-0.039062 0.27734-0.066407 0.54688-0.13672 0.80469-0.23828zm-1.8828 5.5938c0.74609 0.42578 1.5938 0.73828 2.3398 0.9375 0.92188 0.24219 1.9062 0.39453 2.8711 0.33203 0.10938 0.28516 0.25781 0.54297 0.42969 0.77344-0.73047-0.078125-1.4805-0.078125-2.1953 0.066406-0.37891 0.078125-1.1172 0.30859-1.5781 0.70312-0.48828-0.21094-0.96875-0.36328-1.3984-0.48047-0.38281-0.10156-0.78516-0.17578-1.1836-0.23438-0.097656-0.015624-0.18359-0.027343-0.27734-0.03125-0.1875-0.027343-0.36719-0.050781-0.54688-0.054687-0.72266-0.050781-1.4219-0.027344-2.0781 0.10938-0.69531 0.14453-1.5352 0.49219-1.8516 1.1992-0.011719-0.003907-0.011719-0.015625-0.015626-0.027344-0.86719-1.25-2.3555-2.0078-3.9102-2.418 0.29688-0.34375 0.58203-0.67578 0.87891-1.0195 1.5352 1.0078 3.5977 1.4297 5.2773 1.4297h0.29688c1.0391-0.003906 2.4531-0.4375 2.9414-1.2852zm-5.9258-6.8789c1.5547 1.2031 3.8594 1.7773 5.6328 1.6797h0.015625c-0.62891 0.16797-1.7812 0.60937-1.7812 1.3516v0.53125c-1.4688-0.82031-3.3086-1.168-4.832-1.168h-0.29687c-0.24609 0-0.51563 0.03125-0.78906 0.082031 0.61328-0.84766 1.3086-1.6641 2.0508-2.4766zm12.938-77.348c2.543-24.59 38.082-34.008 46.223-7.6758 3.7852 12.258-3.957 42.266-16.828 59.516-3.4648 3.5703-7.2773 7.4375-11.398 10.562-5.4688 2.9336-11.383 3.1289-17.43-0.84375-0.09375-0.41406-0.18359-0.83594-0.27734-1.2461 0.13672-0.18359 0.25781-0.39062 0.31641-0.63672 5.3672-19.27-2.6328-40.02-0.60547-59.676zm-60.383 19.891c2.4609-6.8047 10.234-9.1328 16.707-9.2969 10.492-0.26562 17.809 6.4609 22.949 14.844 7.1562 11.688 9.1641 26.09 12.191 39.367-2.3438 0.70703-4.6133 1.7148-6.7383 2.9844-0.29688-0.21484-0.66016-0.41797-1.0664-0.59766-6.8672-6.5742-15.426-10.531-24.305-14.281-14.332-6.0625-26.027-15.668-19.738-33.02zm-37.164 56.602c1.3516-38.309 52.68-12.441 74.906-5.7031 0.23047 0.26562 0.48047 0.5 0.70312 0.77734 0.1875 0.25 0.48047 0.46484 0.80469 0.67578-1.4961 1.4219-2.8633 2.9805-4.0312 4.6328-1.7266 2.457-2.6328 4.7461-2.9219 6.8359-9.3125 10.68-19.207 21.098-32.145 27.285-24.16 11.555-38.031-14.023-37.316-34.504zm82.469 69.336c-4.8828 17.016-28.871 24.293-44.297 18.207-32.184-12.707 28.207-59.672 40.266-66.785 0.078125-0.03125 0.10938-0.082032 0.16406-0.11719 1.1172 0.64062 2.2695 1.2188 3.4883 1.6836 5.7656 14.195 4.1602 33.812 0.37891 47.012zm13.707 136.05c0.74609 1.1094 1.4805 2.2422 2.1758 3.3945-9.5859-6.5547-20.988-10.496-30.137-17.434 9.1172 4.0703 17.719 9.0469 26.824 13.562 0.24219 0.11719 0.64062 0.27344 1.1367 0.47656zm-65.66-50.926c19.969 11.93 41.922 23.668 57.562 40.715-10.234-5.3203-20.383-10.562-31.789-13.91-1.3516-0.39062-7.8047-0.41406-5.4062 2.6562 9.5234 12.207 24.137 16.746 36.562 24.605-11.109-4.3125-21.879-9.4805-31.297-16.871-12.238-9.5938-20.055-22.949-25.633-37.195zm131.61-51.316c0 20.238-10.59 39.41-21.418 56.113-3.5977 5.5703-7.4531 10.977-11.375 16.328 2.6328-5.7656 5.2383-11.523 7.8555-17.297 4.1211-7.6758 7.8906-15.477 10.574-23.715 0.73828-2.2422-3.1328-4.1484-6.3438-4.2812 5.6797-9.7734 12.438-18.922 20.707-27.148zm16.035-51.074c0.66016 7.7617-6.0352 13.477-12.098 16.871-11.539 6.4766-23.121 8.2695-33.305-1.1016-12.199-11.238-18.477-28.387-31.062-38.988 0.16016-0.13281 0.29687-0.27734 0.39844-0.44922 3.5898-5.8633 8.457-9.3984 13.957-11.223 8.9766 3.5234 19.812 3.7344 29.961 2.5039 13.461 5.2383 30.812 16.594 32.148 32.387z"/>
</svg>
