<?xml version="1.0" encoding="UTF-8"?>
<svg width="50px" height="50px" version="1.1" viewBox="0 0 1200 1200" xmlns="http://www.w3.org/2000/svg">
 <g fill="#084297">
  <path d="m600 245.58c160.49 0 290.69 130.2 290.69 290.69 0 56.539-16.422 111.72-47.371 159.02-43.148 65.914-66.871 131.36-75.641 209.68l-4.2227 37.574c-1.2578 11.594-11.125 20.199-22.531 20.199l-281.85 0.046875c-12.176 0-22.156-9.6328-22.695-21.691l-4.0586-36.129c-8.7695-78.32-32.492-143.77-75.641-209.68-30.926-47.324-47.371-102.48-47.371-159.02 0-160.49 130.2-290.69 290.69-290.69zm0 45.434c-135.49 0-245.25 109.76-245.25 245.25 0 47.883 13.668 94.113 39.906 134.21 46.812 71.512 73.168 144.61 82.73 229.55l1.9375 17.328h241.36l1.9375-17.328c9.5625-84.945 35.918-158.04 82.73-229.55 26.238-40.094 39.906-86.301 39.906-134.21 0-135.49-109.76-245.25-245.25-245.25z"/>
  <path d="m600 324.55c12.523 0 22.719 10.191 22.719 22.719 0 12.523-10.191 22.719-22.719 22.719-82.148 0-152.33 59.965-164.46 141.34-1.7969 12.387-13.34 20.945-25.727 19.148-12.387-1.7969-20.945-13.34-19.148-25.727 15.418-103.44 104.84-180.2 209.33-180.2z"/>
  <path d="m577.28 22.719c0-12.523 10.191-22.719 22.719-22.719 12.523 0 22.719 10.191 22.719 22.719v145.03c0 12.523-10.191 22.719-22.719 22.719-12.523 0-22.719-10.191-22.719-22.719z"/>
  <path d="m947.09 157.09c8.8398-8.8398 23.254-8.8398 32.094 0 8.8398 8.8398 8.8398 23.254 0 32.094l-102.55 102.55c-8.8398 8.8398-23.254 8.8398-32.094 0s-8.8398-23.254 0-32.094z"/>
  <path d="m1113.6 513.55c12.523 0 22.719 10.191 22.719 22.719 0 12.523-10.191 22.719-22.719 22.719h-145.03c-12.523 0-22.719-10.191-22.719-22.719 0-12.523 10.191-22.719 22.719-22.719z"/>
  <path d="m979.18 883.35c8.8398 8.8398 8.8398 23.254 0 32.094-8.8398 8.8398-23.254 8.8398-32.094 0l-102.55-102.55c-8.8398-8.8398-8.8398-23.254 0-32.094s23.254-8.8398 32.094 0z"/>
  <path d="m220.82 189.18c-8.8398-8.8398-8.8398-23.254 0-32.094 8.8398-8.8398 23.254-8.8398 32.094 0l102.55 102.55c8.8398 8.8398 8.8398 23.254 0 32.094s-23.254 8.8398-32.094 0z"/>
  <path d="m86.449 558.98c-12.523 0-22.719-10.191-22.719-22.719 0-12.523 10.191-22.719 22.719-22.719h145.03c12.523 0 22.719 10.191 22.719 22.719 0 12.523-10.191 22.719-22.719 22.719z"/>
  <path d="m252.91 915.45c-8.8398 8.8398-23.254 8.8398-32.094 0-8.8398-8.8398-8.8398-23.254 0-32.094l102.55-102.55c8.8398-8.8398 23.254-8.8398 32.094 0s8.8398 23.254 0 32.094z"/>
  <path d="m459.07 1041.9c-12.523 0-22.719-10.191-22.719-22.719 0-12.523 10.191-22.719 22.719-22.719h281.85c12.523 0 22.719 10.191 22.719 22.719 0 12.523-10.191 22.719-22.719 22.719z"/>
  <path d="m459.07 1120.9c-12.523 0-22.719-10.191-22.719-22.719 0-12.523 10.191-22.719 22.719-22.719h281.85c12.523 0 22.719 10.191 22.719 22.719 0 12.523-10.191 22.719-22.719 22.719z"/>
  <path d="m514.07 1200c-12.523 0-22.719-10.191-22.719-22.719 0-12.523 10.191-22.719 22.719-22.719h171.85c12.523 0 22.719 10.191 22.719 22.719 0 12.523-10.191 22.719-22.719 22.719z"/>
 </g>
</svg>
