<?xml version="1.0" encoding="UTF-8"?>
<svg width="512pt" height="512pt" version="1.1" viewBox="0 0 512 512" xmlns="http://www.w3.org/2000/svg">
 <path d="m363.03 476.51-260.71-1.957c-12.562-0.10156-13.512-4.6523-13.188-13.602l4.1484-110.34c0.76953-20.32-16.68-16.531-16.828-34.691-0.12109-10.82 11.828-8.9219 11.996-28.832 0.18359-19.91-1.7734-30.938-7.4648-42.668-5.6875-11.73 1.2383-23.645-1.2461-42.133-2.4922-18.488-4.9844-44.977-12.805-80.891-7.8203-35.91 2.8438-29.691-0.35938-45.16s6.5781-17.598 6.5781-17.598l86.586 3.4922c8.293 0.35938 10.25-4.6016 10.371-9.1836l0.23438-9.4492c0.14062-5.6875 1.6289-9.6875 8.8906-7.6875 8.2031 2.2578 9.3281 4.7383 10.426 12.512 0.88672 6.125 0.79688 12.293 3.6758 17.418 4.3789 7.8008-2.582 14.664 4.1758 17.156 6.7578 2.4922 15.047 3.5625 22.996 6.1094 14.785 4.7383 17.715 10.785 25.008 10.785 13.391 0 16.297-10.73 25.957-9.0469 7.3789 1.3047 26.219 4.4141 32.746 15.98 6.543 11.547 13.098-0.51172 26.902 9.2969 13.84 9.8125 28.684 15.586 47.523 6.5547 18.848-9.0742 10.547 9.5352 34.195 7.5273 17.426-1.4844 15.523 3.0156 23.824 3.0156 16.32 0 13.809 12.207 1.3867 15.109-15.672 3.6484-31.965 9.6016-40.441 15.469-12.09 8.3555-45.098 44.59-57.422 53.402-5.8086 4.1367-11.168 10.012-15.91 14.27-9.0039 8.1367-8.2305 13.223-8.2305 24.691v22.512c0 3.8359-0.17578 7.5898-5.457 9.4219-3.4062 1.2227-23.969 11.445-24.711 23.152-0.73828 11.668 11.203 10.781 10.934 19.574-0.23438 8.8008-4.7656 9.8125-5.0352 26.668-0.23828 16.82-5.8984 24.27 4.4102 30.543 10.309 6.2734 36.441 23.5 45.242 36.824 8.8008 13.336 27.91 15.199 30.309 25.133l2.7539 18.223c0.95703 6.375-1.6484 8.4492-11.461 8.3984z" fill="#00449e"/>
</svg>
