<?xml version="1.0" encoding="UTF-8"?>
<svg width="512pt" height="512pt" version="1.1" viewBox="0 0 512 512" xmlns="http://www.w3.org/2000/svg">
 <g>
  <path d="m418.1 41.883c14.336 2.457 34.203 9.2148 46.488 22.324 3.3789 3.5859 9.3203 2.9688 11.98-1.2305 2.9688-4.6094 5.6328-9.832 6.4531-13.312 3.6875-17.102-15.566-38.91-34.918-43.316-19.457-4.4023-31.742 10.445-35.43 27.441v0.10156c-0.82031 3.6914 1.7422 7.375 5.4258 7.9922z"/>
  <path d="m464.18 406.43c0.82031-11.879 22.223-201.73 22.223-201.73-18.125 33.895-55.398 63.797-91.648 63.691-32.77 0-138.24-34.508-138.24-103.94 0-21.812 3.9922-40.961 10.137-57.445-0.30859 0.30859-0.61328 0.71875-1.0234 1.0234 1.125-1.0234-3.0703 3.6875-3.6875 4.5039-5.6328 7.5781-11.059 15.258-17.922 21.605-6.5547 6.043-13.516 10.957-20.684 14.746-44.645 23.656-72.293 71.066-70.348 122.16 0.10156 3.9922 0.30859 8.0898 0.61328 12.188-11.266-9.0117-22.117-23.961-28.98-50.277-7.5781-29.594-32.77-51.609-62.668-55.602-11.672-1.5352-20.07 0.41016-21.707 5.7344-22.43 71.781-22.223 234.8 23.242 297.16 0 0 54.785 25.09 89.805 0 3.0703-2.1523 1.7422-8.6016 0.30859-14.438-5.6328-22.938-7.0664-46.797-2.6641-70.043 1.2305-6.4531 6.1445-23.348 11.57-41.574 9.5234 46.695 27.137 95.129 58.164 137.73 17.203 23.656 75.367 23.656 92.059 14.234 7.4766-4.1992 4.0977-18.434 3.1758-24.574-4.9141-31.027-6.4531-62.566-2.2539-93.797 5.7344-43.008 13.926-90.93 21.707-89.496 0 0 4.8125 1.7422 4.9141 11.777 0.92187 103.32 18.023 146.12 23.758 162.71 5.7344 16.59 9.9336 23.348 38.707 27.547 9.2148 1.332 61.441 7.5781 66.355-12.391 3.2773-13.527-7.3711-47.523-4.9141-81.52z"/>
  <path d="m284.88 68.609c9.9336 7.4766 24.062 6.1445 32.152-3.2773s19.355-16.078 31.438-18.125c3.9922-0.71875 7.0664-4.3008 6.9648-8.5v-0.10156c-0.82031-20.684-16.078-39.426-39.629-38.605s-46.387 20.992-45.672 41.574c0.41016 10.957 6.043 20.48 14.746 27.035z"/>
  <path d="m335.67 170.7c12.289 33.793 28.57 19.457 36.352 9.7266 2.9688-3.7891 6.1445-7.4766 9.3203-11.16 9.3203-10.754 20.273-32.461-6.043-38.91-9.7266-2.3555-19.559 3.5859-26.625 10.754-7.0664 7.0625-17.102 18.531-13.004 29.59z"/>
  <path d="m442.68 130.25c-21.402 5.2227-12.492 22.938-4.9141 31.641 2.5586 2.9688 5.1211 5.9375 7.5781 9.1133 6.2461 7.9883 19.457 19.559 29.492-7.8867 3.2773-9.0117-4.8125-18.227-10.547-24.062-5.7383-5.9375-13.727-10.75-21.609-8.8047z"/>
  <path d="m414.72 216.37c6.6562 1.6367 8.0898 14.645 7.8867 17.406-0.10156 2.6641-0.30859 5.4258-0.61328 6.7578 0 0.10156-0.10156 3.3789-2.7656 4.9141-2.457 1.4336-10.035 3.8906-27.957-5.9375-0.71875-0.41016-1.5352-0.10156-1.9453 0.61328-0.41016 0.71875-0.10156 1.6367 0.61328 1.9453 10.754 5.8359 18.227 7.5781 23.246 7.5781 3.5859 0 5.9375-0.92188 7.4766-1.7422 1.4336-0.92188 4.9141-1.6367 6.043-1.125 0.71875 0.30859 1.5352 0.51172 2.3555 0.51172 3.2773 0 7.3711-2.457 12.082-7.3711 0.51172-0.61328 0.51172-1.5352 0-2.0469-0.61328-0.51172-1.4336-0.51172-2.0469 0-6.5547 6.7578-9.832 6.7578-11.266 6.2461-1.9453-0.82031-2.7656-2.457-2.6641-5.1211 0.30859-2.0469 0.51172-4.6094 0.61328-7.168 0.10156-2.5586-0.30859-14.645 6.8594-16.59 0.71875-0.20313 1.2305-0.82031 1.5352-1.4336 1.7422-4.0977 2.9688-8.293 3.1758-11.672 0.51172-9.832-34.715-11.16-34.816-0.20312 0 3.1758 0.51172 6.1445 1.5352 8.9102 1.8477 4.8125 10.652 5.5273 10.652 5.5273z"/>
 </g>
</svg>
