<?xml version="1.0" encoding="UTF-8"?>
<svg width="512pt" height="512pt" version="1.1" viewBox="0 0 512 512" xmlns="http://www.w3.org/2000/svg">
 <path d="m337 97.535c-0.87109-3.9922-1.6914-7.8867-2.4062-11.672 0-0.5625-11.109-57.09-31.18-59.852h-0.82031c-6.9648-0.87109-14.898 4.1992-24.27 15.359-6.6562-9.0117-14.184-15.77-21.812-15.77h-1.0234c-7.6289 0-15.359 6.7578-21.812 15.719-9.4219-11.266-17.406-16.23-24.27-15.359h-0.82031c-20.07 2.7148-31.078 59.238-31.18 59.852-0.71875 3.7891-1.5352 7.6797-2.4062 11.672-3.9922 18.637-8.5 39.781-3.0703 58.164 5.7383 17.867 18.754 32.48 35.84 40.242 0.30859 0.027344 0.61328 0.027344 0.92188 0 11.414 12.172 27.344 19.098 44.031 19.148v58.727 60.211c-18.512 48.012-18.512 101.19 0 149.2 0.51953 1.5312 1.7383 2.7266 3.2773 3.2227h1.0234c1.4375 0.011718 2.8125-0.58203 3.7891-1.6367 25.258-27.344 41.457-61.816 46.387-98.715 5.7383-39.711 3.7031-80.156-5.9883-119.09-0.43359-1.9414-1.9492-3.4609-3.8906-3.8906-1.9102-0.42969-3.8984 0.26562-5.1211 1.793-11.352 14.035-21.199 29.223-29.391 45.309v-36.504-59.086c15.543-0.57422 30.246-7.207 40.961-18.48h0.5625c17.086-7.7656 30.102-22.379 35.84-40.246 5.375-18.531 0.82031-39.68-3.1719-58.316zm-43.418 182.63c7.3711 34.246 8.5156 69.539 3.3789 104.19-4.3047 32.004-17.5 62.164-38.094 87.039-14.383-42.988-13.516-89.621 2.457-132.04 0.8125-0.92188 1.2656-2.1016 1.2812-3.3281 7.7539-19.934 18.176-38.727 30.977-55.859zm-111.72-127.39c-4.6602-15.871-0.61328-34.766 3.2773-53.043 0.87109-4.043 1.7422-8.0391 2.457-11.93 4.7109-24.629 15.973-50.586 22.375-51.199h0.82031c1.8945-0.41016 7.6289 2.5078 16.793 14.133v-0.003907c-6.793 11.57-12.582 23.695-17.309 36.25-1.4336 4.0977-3.0703 8.293-4.7109 12.543-7.6289 19.664-16.125 42.293-12.902 63.438 0.71094 4.2969 1.8242 8.5117 3.3281 12.598-6.5234-6.3086-11.383-14.137-14.129-22.785zm75.312 52.02c-0.26953-0.023437-0.54297-0.023437-0.81641 0-0.27344-0.023437-0.54688-0.023437-0.82031 0-42.293 0-50.738-33.332-52.582-43.52-2.9688-18.328 4.8125-38.707 12.391-58.367 1.6914-4.3516 3.2773-8.6523 4.7617-12.801 8.9102-25.039 26.266-54.273 35.379-54.273h1.0234c9.1133 0 26.469 29.234 35.328 54.273 1.4844 4.1484 3.125 8.4492 4.7617 12.801 7.5273 19.711 15.359 40.039 12.391 58.367-2.0469 12.797-11.316 43.52-51.816 43.52zm72.961-52.02c-2.7227 8.5781-7.5234 16.352-13.977 22.629 1.4141-4.0469 2.4766-8.2109 3.1758-12.441 3.3789-21.094-5.1211-43.777-12.902-63.797-1.6367-4.3008-3.2266-8.5-4.7109-12.543-4.7266-12.551-10.516-24.68-17.309-36.25 9.2188-11.723 14.695-14.539 16.746-14.129h0.82031c6.3984 0.87109 17.664 26.828 22.375 51.199 0.71875 3.8398 1.5859 7.832 2.457 11.93 3.9414 18.383 7.9844 37.531 3.3242 53.402z"/>
</svg>
