<?xml version="1.0" encoding="UTF-8"?>
<svg width="512pt" height="512pt" version="1.1" viewBox="0 0 512 512" xmlns="http://www.w3.org/2000/svg">
 <g>
  <path d="m88.086 258.84h104.49c0.60938 3.0195 2.1914 5.5156 4.6445 7.1641 2.0625 1.3906 4.5898 2.0859 7.3594 2.0859 2.457 0 5.1094-0.54688 7.8125-1.6445 1.3477-0.54688 2.5625-1.0508 3.7148-1.5352-0.33984 0.33984-0.65625 0.64844-1.0117 1.0078-4.3789 4.3984-6.3672 9.5586-5.457 14.16 0.75 3.7695 3.3516 6.7656 7.3203 8.4297v0.003906c1.7461 0.72656 3.4766 1.0898 5.1484 1.0898 2.1484 0 4.1953-0.59766 6-1.7852 3.9102-2.5742 6.1953-7.6133 6.2617-13.816 0.10938-10.637-0.20703-15.578-0.78906-18.004 0.58594-2.4258 0.89844-7.3672 0.78906-18-0.066406-6.2031-2.3516-11.242-6.2617-13.816-3.2109-2.1133-7.168-2.3594-11.148-0.69531v0.003907c-3.9727 1.6641-6.5703 4.6602-7.3203 8.4297-0.91016 4.6016 1.0781 9.7617 5.457 14.16 0.375 0.375 0.66797 0.66016 1.0234 1.0156-1.1562-0.48438-2.375-0.98828-3.7227-1.5391-5.7617-2.3398-11.289-2.1758-15.172 0.4375-2.457 1.6445-4.0391 4.1406-4.6484 7.1602h-104.49c-3.418-3.0156-16.324-13.391-32.094-13.391-18.055 0-32.367 13.609-32.965 14.188-0.55469 0.53516-0.86719 1.2734-0.86719 2.0469s0.3125 1.5117 0.86719 2.0469c0.60156 0.57812 14.91 14.188 32.965 14.188 15.773 0 28.676-10.375 32.094-13.391zm140.6 15.094c-0.042969 4.2188-1.4297 7.6289-3.6992 9.125-2.0391 1.3398-4.2891 0.84375-5.8203 0.20312-1.5391-0.64453-3.4648-1.9102-3.9375-4.2891-0.52734-2.6719 0.92969-6.0547 3.9062-9.043 3.9336-3.9531 7.1406-6.9453 9.3281-8.8633 0.16797 2.9062 0.27734 7.2891 0.22266 12.867zm-13.461-40.914c0.47266-2.3789 2.3984-3.6445 3.9375-4.2891 1.5273-0.64844 3.7773-1.1367 5.8203 0.20312 2.2734 1.4961 3.6562 4.9062 3.6992 9.125 0.054687 5.582-0.054688 9.9609-0.22656 12.867-2.1875-1.918-5.3945-4.9102-9.3281-8.8633-2.9766-2.9922-4.4297-6.3711-3.9023-9.043zm-14.824 17.688c1.1016-0.74219 2.5391-1.1133 4.1836-1.1133 1.7227 0 3.668 0.41016 5.668 1.2266 5.168 2.1016 9.1602 3.8984 11.773 5.1758-2.6797 1.3086-6.75 3.1406-11.773 5.1797-3.9062 1.6016-7.5938 1.6328-9.8516 0.10937-2.0078-1.3516-2.4336-3.6211-2.4336-5.2891s0.42578-3.9375 2.4336-5.2891zm-144.4-5.2539c11.766 0 22.094 6.9805 26.605 10.547-4.4961 3.5703-14.801 10.543-26.605 10.543-11.766 0-22.094-6.9805-26.605-10.547 4.4922-3.5703 14.797-10.543 26.605-10.543z"/>
  <path d="m456 239.77c-15.77 0-28.676 10.375-32.094 13.391h-104.49c-0.60938-3.0195-2.1914-5.5156-4.6445-7.168-3.8828-2.6133-9.4062-2.7773-15.172-0.4375-1.3516 0.55078-2.5703 1.0547-3.7227 1.5391 0.35547-0.35547 0.64844-0.64062 1.0234-1.0156 4.3789-4.3984 6.3672-9.5586 5.457-14.16-0.75-3.7695-3.3516-6.7656-7.3203-8.4297v-0.003906c-3.9844-1.6641-7.9375-1.418-11.148 0.69531-3.9102 2.5742-6.1953 7.6133-6.2617 13.816-0.11328 10.641 0.20313 15.582 0.78516 18.008-0.58594 2.4258-0.89844 7.3672-0.78906 18 0.066406 6.2031 2.3516 11.242 6.2617 13.816 1.8047 1.1875 3.8516 1.7852 6 1.7852 1.6719 0 3.4062-0.35937 5.1484-1.0898v-0.003907c3.9727-1.6641 6.5703-4.6602 7.3203-8.4297 0.91016-4.6016-1.0781-9.7617-5.457-14.16-0.35938-0.35938-0.67188-0.66797-1.0117-1.0078 1.1523 0.48438 2.3672 0.98828 3.7109 1.5352 2.707 1.0977 5.3555 1.6445 7.8125 1.6445 2.7734 0 5.3008-0.69531 7.3594-2.0859 2.4531-1.6484 4.0352-4.1445 4.6445-7.1641h104.49c3.418 3.0156 16.324 13.391 32.094 13.391 18.055 0 32.367-13.609 32.965-14.188 0.55859-0.53125 0.87109-1.2695 0.87109-2.043s-0.3125-1.5117-0.86719-2.0469c-0.60156-0.57812-14.91-14.188-32.969-14.188zm-172.69-1.7031c0.042969-4.2188 1.4297-7.6289 3.6992-9.125 0.94531-0.62109 1.9336-0.84766 2.8789-0.84766 1.0938 0 2.1211 0.30078 2.9453 0.64453 1.5391 0.64453 3.4648 1.9102 3.9375 4.2891 0.52734 2.6719-0.92969 6.0547-3.9062 9.043-3.9336 3.9531-7.1406 6.9453-9.3281 8.8633-0.17188-2.9062-0.28125-7.2891-0.22656-12.867zm13.461 40.914c-0.47266 2.3789-2.3984 3.6445-3.9375 4.2891-1.5352 0.63672-3.7852 1.1289-5.8203-0.20312-2.2734-1.4961-3.6562-4.9062-3.6992-9.125-0.054687-5.582 0.054688-9.9609 0.22656-12.867 2.1875 1.918 5.3945 4.9102 9.3281 8.8633 2.9766 2.9922 4.4297 6.3711 3.9023 9.043zm14.824-17.688c-2.25 1.5234-5.9375 1.4844-9.8516-0.10937-5.0234-2.0391-9.0938-3.8711-11.773-5.1797 2.6094-1.2734 6.6055-3.0742 11.773-5.1758v-0.003907c3.9219-1.5898 7.6016-1.625 9.8516-0.10937 2.0078 1.3516 2.4336 3.6211 2.4336 5.2891s-0.42578 3.9375-2.4336 5.2891zm144.4 5.2539c-11.766 0-22.094-6.9805-26.605-10.547 4.4961-3.5703 14.801-10.543 26.605-10.543 11.766 0 22.094 6.9805 26.605 10.547-4.4922 3.5703-14.797 10.543-26.605 10.543z"/>
  <path d="m256 272.05c8.8516 0 16.051-7.1992 16.051-16.051s-7.1992-16.051-16.051-16.051-16.051 7.1992-16.051 16.051 7.1992 16.051 16.051 16.051zm0-26.41c5.7109 0 10.359 4.6484 10.359 10.359 0 5.7148-4.6484 10.359-10.359 10.359s-10.359-4.6445-10.359-10.359 4.6484-10.359 10.359-10.359z"/>
  <path d="m256 263.41c4.0898 0 7.4102-3.3242 7.4102-7.4102s-3.3203-7.4102-7.4102-7.4102-7.4102 3.3242-7.4102 7.4102 3.3203 7.4102 7.4102 7.4102zm0-9.1328c0.94922 0 1.7227 0.77344 1.7227 1.7227s-0.77344 1.7227-1.7227 1.7227-1.7227-0.77344-1.7227-1.7227 0.77344-1.7227 1.7227-1.7227z"/>
 </g>
</svg>
