<?xml version="1.0" encoding="UTF-8"?>
<svg width="1200pt" height="1200pt" version="1.1" viewBox="0 0 1200 1200"
    xmlns="http://www.w3.org/2000/svg">
    <g fill="#b83d54">
        <path
            d="m798.29 681.56c-18.375 0-37.574 7.7109-52.762 25.23l-75.633 97.375c-8.7344-14.43-74.699-134.84-115.33-166.97-18.027-14.254-41.133-25.664-65.793-34.379-10.293 10.957-22.02 20.508-34.895 28.418 29.195 7.9453 57.652 19.73 77.426 35.367 13.648 10.805 134.74 203.65 134.74 203.65l33.465-43.086 74.926-96.441c8.6523-9.6328 17.715-11.664 23.859-11.664 6.8945 0 13.566 2.5469 18.32 6.9961 9.2656 8.6797 13.75 31.586-2.3789 50.316l-0.72266 0.85938-0.6875 0.87891-131.65 172.85c-7.332 9.2305-17.102 14.539-26.824 14.539-6.0156 0-11.711-2.0508-16.68-5.9336l-109.43-185.22v289.53c0 23.363-18.777 42.391-41.848 42.391l-243.04-0.003907c-11.508 0-22.129-4.3398-29.91-12.23-7.2148-7.2891-11.113-16.883-10.988-27.355l0.89844-302.98-103.92 248.12c-8.7227 19.133-24.891 27.852-36.289 27.852-3.1055 0-6.0508-0.62109-8.7695-1.8125-15.453-6.8477-21.461-31.844-12.855-53.484l28.473-71.648c28.977-72.93 61.617-155.05 66.102-166.31 30.441-61.039 76.297-99.684 138.86-117-12.367-7.957-23.57-17.496-33.453-28.309-55.875 21.031-105.64 60.918-139.67 130-0.13672 0.29297-58.336 146.78-95.152 239.41-16.289 40.961-1.7305 86.461 32.512 101.62 7.6992 3.4062 15.812 5.0352 23.961 5.0352 28.105 0 56.719-19.207 70.688-50.391l31.465-75.148-0.33984 114.94c-0.53125 42.629 34.57 77.199 78.398 77.199l243.03-0.007813c43.828 0 79.348-35.762 79.348-79.891v-152.34l42.535 72.035c13.121 13.055 29.516 19.445 46.07 19.445 20.57 0 41.398-9.8867 56.469-29.059l131.84-173.11c28.703-33.344 24.234-79.066-0.41406-102.16-11.656-10.906-27.469-17.117-43.949-17.117z" />
        <path
            d="m1125 56.258h-768.75c-41.246 0-75 33.746-75 75v210.51c11.699-6.8203 24.242-12.305 37.5-16.168v-194.34c0-20.691 16.828-37.5 37.5-37.5h768.75c20.684 0 37.5 16.809 37.5 37.5v562.5c0 20.672-16.816 37.5-37.5 37.5h-226.41c1.832 12.297 1.6328 24.977-0.63281 37.5h227.04c41.254 0 75-33.746 75-75v-562.5c0-41.254-33.746-75-75-75z" />
        <path
            d="m365.92 618.76c72.5 0 131.25-58.758 131.25-131.27 0-72.492-58.75-131.23-131.25-131.23-72.465 0-131.25 58.738-131.25 131.23 0 72.512 58.785 131.27 131.25 131.27zm0-225c51.691 0 93.75 42.043 93.75 93.73 0 51.691-42.059 93.77-93.75 93.77-51.691 0-93.75-42.078-93.75-93.77 0-51.688 42.059-93.73 93.75-93.73z" />
    </g>
</svg>