<?xml version="1.0" encoding="UTF-8"?>
<svg width="1200pt" height="1200pt" version="1.1" viewBox="0 0 1200 1200"
    xmlns="http://www.w3.org/2000/svg">
    <g fill="#b83d54">
        <path
            d="m150.65 1192.1c-24.602 0-48.852-6.6484-72-19.75-60.898-34.398-89.301-104.75-67.5-167.15 9.75-28.051 29.852-57.199 56.398-82.051 150.45-140.6 310.75-288.45 490.1-452 20.648-18.898 24.199-25.398 15.051-51.551-42.949-122.1-18.949-233.7 69.5-322.6 85.148-85.551 190.55-109.3 326.85-72.352 8.6992 2.3516 15.449 9.1992 17.699 17.898s-0.39844 17.949-6.8984 24.199l-150.6 145.05 160.25 160.3 140.75-146.9c5.6992-5.8984 14.102-8.8516 22.051-7.3516 8.1016 1.3008 15.051 6.5 18.602 13.898 55.102 116.15 12.602 254.05-55.352 324.9-92.949 96.852-218.55 117.9-371.85 61.25l-237.15 257.05c-81.051 88.148-162.05 176.2-243.6 263.9-32.398 34.809-71.199 53.258-112.3 53.258zm703.3-1134.1c-68.898 0-126.6 24.301-176.35 74.301-73.949 74.352-93.898 167.95-57.75 270.75 17.602 50.051 2.8984 76.398-28.5 105.1-179.2 163.5-339.35 311.2-489.6 451.6-20.5 19.148-36.352 41.75-43.398 62-13.801 39.551 5.1016 84.551 44.898 107.1 41.898 23.648 87.051 14.75 123.1-23.949 81.449-87.602 162.45-175.65 243.4-263.65l248.8-269.6c7.0508-7.6016 17.949-10.102 27.648-6.1992 141.35 56.449 250.6 42.75 333.35-43.301 49.551-51.648 82.898-146.15 59.301-233.4l-130.85 136.5c-4.6484 4.8984-11.102 7.6484-17.801 7.6992-4.25-0.64844-13.199-2.6016-17.898-7.3008l-196.35-196.4c-4.75-4.75-7.3516-11.199-7.3008-17.898s2.8516-13.102 7.6484-17.75l135.4-130.4c-20.34-3.5117-39.59-5.2109-57.742-5.2109z" />
        <path
            d="m150.95 1121.4c-42.25 0-76.551-34.352-76.551-76.551 0-42.199 34.352-76.551 76.551-76.551s76.551 34.352 76.551 76.551c0 42.203-34.352 76.551-76.551 76.551zm0-103.1c-14.648 0-26.551 11.898-26.551 26.551 0 14.648 11.898 26.551 26.551 26.551 14.652-0.003906 26.551-11.902 26.551-26.551 0-14.652-11.898-26.551-26.551-26.551z" />
    </g>
</svg>