<?xml version="1.0" encoding="UTF-8"?>
<svg width="512pt" height="512pt" version="1.1" viewBox="0 0 512 512" xmlns="http://www.w3.org/2000/svg">
 <path d="m355.88 375.56c-11.145-7.1562-23.418-11.926-37.531-13.188-9.9023-0.88672-23.055-0.44141-34.637 2.7891 0.79297-0.57812 1.582-1.1562 2.3594-1.7852 10.363-8.3398 17.633-19.246 22.652-31.484 5.0078-12.215 7.625-25.492 7.4102-38.707-0.14453-8.8945-2.3594-17.055-4.0547-25.691-0.17969-0.91016-0.33203-1.8242-0.48047-2.7344l-0.64062-4.25-4.1406 2.7891c-9.9336 6.5859-20.219 12.617-30.199 19.184-11.117 7.3125-20.691 15.203-25.027 28.199-4.6328 13.879-3.4453 28.504-0.097657 42.844-10.715-28.906-20.156-55.578-15.961-87.098 1.7344-13.035 5.6562-26.055 10.746-38.176 2.3359-5.5586 6.6445-12.93 5.3945-19.215-0.097657-0.49219-0.76953-0.37891-0.75391 0.10938 0.21484 7.6758-6.4609 16.68-9.1758 23.648-4.3633 11.211-7.6836 23.262-9.1406 35.211-2.9805 24.535 0.64062 46.977 9.0469 70.035 9.832 26.969 21.07 53.945 25.012 82.57 1.8477 13.402 0.46484 26.809-0.42578 40.227-0.48828 7.3047-0.86719 15.699-3.4727 22.938-1.9961 0.16016-4.0234-0.12109-6.0742-0.6875 0.71875-3.0156 1.1719-6.1172 1.543-9.1602 1.418-11.703 2.0625-23.859 2.2617-35.637 0.47266-27.602-9.5859-55.09-19.055-80.609-11.004-29.648-20.957-56.793-16.664-89.008 1.7344-13.035 5.6562-26.055 10.746-38.176 1.9492-4.6484 5.2734-10.559 5.5859-16.047 1.9297-1.5039 3.8906-2.9648 5.9492-4.2656 2.0273-1.2852 4.0703-2.1602 5.9102-3.4414l2.2461 0.42578c2.0078 0.26562 4.0703 0.35156 6.1523 0.33984 0.03125 0.13672 0.10938 0.26562 0.29297 0.34375 3.5469 1.4609 6.6211 5.3242 9.6875 7.6484 3.1953 2.4219 6.4727 4.5664 9.9258 6.5938 1.4141 0.82422 2.7461 1.7266 4.0508 2.6484l2.6016 1.9141 7.0391 0.78516c8.7773 0.89063 17.562 1.3984 26.32 0.83984l1.5977-0.11719 2.6797-3.8086c2.7891-4.168 5.3438-8.5 8.0273-12.785 1.9219-3.0703 3.8906-6.1641 5.5234-9.3984l2.4375-5.9141-4.5664 3.1602c-2.6836 1.8594-5.375 3.7031-8.1211 5.4648-4.168 2.6797-8.3711 5.7227-12.918 7.6953-2.1797 0.94531-4.2383 1.3398-6.2891 1.5117-2.4492-2.2266-5.2031-4.2383-7.4023-6.5391-2.8828-3.0039-5.668-6.1328-8.418-9.2891 6.3906-3.5703 11.98-7.8711 15.98-12.41 9.957-11.32 18.52-23.922 20.059-39.238 0.8125-8.1289-0.019532-16.258-1.3789-24.277-1.1484-6.7773-1.6328-13.402-2.1406-20.082 10.684-9.8047 23.047-22.309 21.367-38.293-0.66016-6.2969-4.1719-12.043-9.5547-15.457-5.2227-3.3164-9.9414-2.9375-15.012-2.0977 0-0.003906-0.003907-0.015625-0.003907-0.019531-2.0117-5.3398-11.617-3.3281-16.805-1.9609-1.9961-3.1289-4.8242-5.6719-8.3828-7.082-6.4805-2.5703-12.473-1.668-18.34 0.34375 0.13672-5.0469-9.2109-10.117-12.852-11.48-7.0234-2.6328-13.402 3.8867-17.914 8.9453-3.9375-3.1484-8.8594-5.6562-12.852-2.2031-2.5742 2.2266-2.9297 5.8984-2.2227 9.2969-6.25-4.3828-13.441-5.8828-20.082 0.41406-8.2188 7.793-2.1094 17.09 5.8008 22.953 0.14453 10.383-0.97656 20.707-4.2305 30.676-3.3594 10.285-9.5859 18.703-14.734 28.074-6.918 12.586-7.8164 25.625-4.207 39.43 1.2695 4.8594 3.1016 9.8477 5.5547 14.484-2.2305-0.039062-4.4609-0.039062-6.5742 0.67969-5.4922 1.8789-7.9766 6.4883-14.516 7.5195-8.8594 1.4023-17.66-2.6367-25.012-7.832l-2.1719-1.6016 1.3633 5.2461c3.0352 9.168 9.6602 18.605 17.652 25.02l2.3125 1.7188 4.8594-0.40625c3.3984-0.48047 6.7891-1.3477 10.707-2.5273 12.09-3.6523 22.75-1.2344 34.781-2.082-2.6562 3.3398-4.9727 6.9375-6.8438 10.902-3.1992 6.7773-3.5312 13.762-4.4102 20.789l-0.375 2.7344 3.2305-3.2148c5.5547-5.3906 11.43-10.418 17.496-15.328 1.7578-1.4219 3.5078-2.8711 5.2852-4.2969-1.5508 6.6133-6.4609 13.727-8.6875 19.457-4.3633 11.211-7.6836 23.262-9.1406 35.211-2.9648 24.402 0.60547 46.734 8.9141 69.664-4.5195-7.2031-10.008-13.711-16.582-19.027-15.523-12.555-37.152-19.859-57.078-16l-2.5039 0.52344 0.44531 2.0586c4.4102 18.156 16.785 33.555 30.977 45.547 14.52 12.266 34.621 15.027 53.355 13.266l1.0742-0.11328c6.7031 18.477 12.77 37.207 15.457 56.699 1.8477 13.402 0.46484 26.809-0.42578 40.227-0.39453 5.9609-0.72266 12.641-2.2383 18.836l-0.52734 1.9648 3.3672 1.4492c0.98828 0.32812 1.8672 0.5625 2.3516 0.67188 1.082 0.25 2.1641 0.35156 3.25 0.38281l4.2031-0.47656c0.41797-0.10938 0.84375-0.19922 1.2656-0.34375l-0.23047-2.832c1.0156-3.6094 1.6094-7.3711 2.0547-11.055 1.418-11.703 2.0625-23.859 2.2617-35.637 0.33984-19.793-4.7461-39.52-11.137-58.512l0.12109-0.050781c0.27734-0.11719 0.54687-0.24219 0.82422-0.35938 11.902 17.121 28.32 21.617 48.855 21.039 19.328-0.54297 33.5-6.832 46.148-18.691l2.3047-2.2539zm-50.773-161.35 1.4375 1.4844 4.9062 0.12891c4.543-0.21484 8.4531-1.5703 14.391-5.0938 2.7031-1.6016 5.3711-3.293 8.0117-5.0195-1.2031 2.1719-2.457 4.3203-3.6523 6.5039-2.2422 4.1016-4.3477 8.2695-6.6562 12.312-10.641 0.84375-21.168 0.34766-31.836 0.22656-2.5391-2.0117-5.1797-3.8945-8.0195-5.5234-4.957-2.832-9.793-5.8008-14.539-8.9766-1.6172-1.082-2.9648-2.2188-4.5664-2.8711 9.5273-0.65625 19.461-3.8438 28.047-8.4336 3.9414 5.3438 7.9688 10.465 12.477 15.262zm7.332-38.414c-8.3828 11.023-17.289 18.176-30.34 22.789-8.0898 2.8633-17.73 5.8047-26.82 5.4531-0.16406-0.5-0.73047-0.88672-1.3164-0.83984-1.3164-3.9062-2.7461-7.793-3.5156-11.914-1.3359-7.1328-1.1992-14.551 0.10156-21.68 0.003906-0.03125 0.015625-0.0625 0.019531-0.09375 2.8867-3.6797 6.0312-7.1641 9.3984-10.359 3.8672-3.6758 8.0742-7.0898 12.684-9.7852 6.7422-3.9414 13.359-4.2617 20.641-6 17.664-4.2305 19.48-23.898 29.105-36.695 0.11328 2.2031 0.28516 4.4102 0.63672 6.6289 1.1758 7.4688 2.9297 14.824 3.293 22.41 0.74609 15.703-4.5352 27.781-13.887 40.086zm11.391-125.52c2.6094-0.62109 5.1797-1.1016 7.2344-0.82422 9.1797 1.2305 14.918 10.27 14.027 18.953-0.87891 8.5898-6.3086 17.164-11.996 23.434-5.5469 6.1172-12.754 10.004-17.246 17.09-4.0547 6.3984-6.1328 13.871-10.133 20.332-6.6211 10.691-15.891 9.7773-26.648 13.07-6.6602 2.0391-12.395 6.0195-17.602 10.578-3.3086 2.8945-6.3477 6.0469-9.1445 9.3906 3.8945-12.934 11.5-24.738 20.438-34.723 10.531-11.762 23.613-20.875 33.91-32.875 5.1445-5.9961 10.277-12.262 14.301-19.082 2.9805-5.0547 3.7031-10.332 6.1758-15.441 0.34766-0.71875-0.8125-1.4023-1.2305-0.69531-2.6367 4.5156-4.4336 9.2266-6.9219 13.746 0.60547-1.875 1.1328-3.7773 1.6172-5.7148 1.0938-4.3242 3.3867-11.625 3.2188-17.238zm-6.8281-3.957c7.957 2.7734-0.57422 28.391-4.5156 36.098-1.1094 1.3633-2.2422 2.707-3.3984 4.043-1.9648-5.8281-4.6641-11.352-8.6406-15.734 1.9961-3.5469 5.1875-6.1445 7.9375-9.0898 2.5391-2.7148 4.7148-5.668 6.3555-9.0078 0.21094-0.42578-0.39062-0.875-0.74219-0.55859-1.4648 1.3047-2.8633 2.6719-4.2461 4.0547-0.003906-3.1836-0.70312-6.3555-2.0156-9.2109 3.1562 0.1875 7.7109-1.1367 9.2656-0.59375zm-34.305-7.0195c13.613-2.9141 24.852 5.4844 24.188 19.695-0.77734 0.77734-1.5625 1.5508-2.3555 2.3086-2.3711 2.2578-4.625 4.4297-6.4258 7.1016-1.9922-1.7461-4.25-3.2344-6.8398-4.3984-2.3047-1.0273-4.5781-1.8594-6.832-2.6523 1.5859-1.7109 2.7383-4.6406 3.6211-6.2656 0.87891-1.6367 1.5664-3.3672 2.3125-5.0703 0.64844-1.4883 1.3984-4.4023 2.8281-5.3203 0.25781-0.16406 0.054688-0.62891-0.24219-0.55859-2.8867 0.70312-4.5195 4.5586-5.8125 6.8906-1.7617 3.1953-3.9414 6.1289-5.7812 9.2422-4.3555-1.543-8.6055-3.2109-12.727-6.1992-3.0977-2.2461-5.7734-4.8672-8.3594-7.582 7.8008-1.3672 14.652-5.5273 22.426-7.1914zm-17.82-10.742c4.9102 1.2969 10.07 5.582 12.254 10.055-5.8867 2.3008-11.703 5.3867-17.832 6.8711-1.9727-2.0938-3.9102-4.2305-5.9766-6.2773-0.96094-0.95312-2.1523-2.1211-3.4805-3.2617 4.4609-3.2656 9.6602-8.8047 15.035-7.3867zm-17.852 8.9492c2.918 2.2266 5.3008 5.125 7.75 7.8281 4.4375 4.8906 8.9336 9.8672 14.512 13.508 4.8242 3.1484 10.004 4.9102 15.504 6.5195 11.711 3.4258 20.773 10.762 21.965 23.75-3.7773 4.1875-7.7305 8.2266-11.793 12.008-4.6641 4.3398-9.4688 8.5-14.168 12.758-1.8906-10.297-6.543-18.555-12.094-26.32 1.8281-8.0352-0.53125-18.555-5.9531-24.656-0.39063-0.44141-1 0.070312-0.70313 0.55469 4.0352 6.5742 4.668 13.121 3.8047 20.234-6.0039-7.9297-12.621-15.621-17.746-24.812-2.5586-4.582-6.8828-10.578-12.027-14.891-0.25781-6.2344 4.2617-11.578 10.949-6.4805zm-29.266 20.855c-5.2539-5.7891-3.9102-10.699 4.0312-14.73 4.25-0.35156 8.0469 0.75781 11.387 3.3281 7.3945 5.207 10.441 13.992 15.148 21.316 4.6172 7.1719 11.324 12.457 16.379 19.297 0.29297 0.39453 0.55469 0.79688 0.82812 1.1992 0.003906 0.003907 0.011718 0.015625 0.015625 0.027344 5.9258 8.375 9.8828 17.762 12.406 27.68-2 1.8633-3.9531 3.7734-5.8711 5.7188-0.36719-5.0547-1.3359-10.008-4.3711-14.27-4.6641-6.5547-13.102-9.4609-16.199-17.387-2.3906-6.1172-0.75391-13.496-5.9844-18.422-4.0078-3.7695-9.9531-3.793-14.891-5.4688-4.7812-1.6328-9.7148-4.2109-12.879-8.2891zm-19.496 87.137c0.66406-15.75 12.191-26.961 18.254-40.703 5.2031-11.785 6.6094-24.488 6.0039-37.172 2.4023 1.4492 4.8242 2.5547 6.9492 3.1797 1.7617 0.51562 3.5703 0.69141 5.3516 1.1016 7.0078 1.6094 9.4922 7.332 11.652 13.59 1.1328 3.2773 1.2148 6.3633 3.1523 9.4805 2.3516 3.7695 5.7461 5.8711 9.125 8.5703 7.2969 5.8281 9.8164 11.785 11.98 20.031-3.0352 3.168-5.9453 6.4727-8.5977 10.047-7.7617 10.449-13.562 22.559-15.801 35.434-1.5273 8.7617-0.64844 16.449 1.0703 24.055-4.0742 1.25-8.3086 1.9062-12.496 1.875-0.078125-0.28125-0.44141-0.51172-0.70703-0.26953-0.097656 0.085937-0.18359 0.17578-0.28125 0.26172-8.6406-0.28125-16.961-3.5117-22.957-10.531-8.8203-10.324-13.27-25.516-12.699-38.949zm0.46875 55.254c-7.5938 1.3984-14.488 4.1875-21.836 5.7891-7.5938-5.7617-14.152-13.742-18.516-22.18 5.1562 2.8398 10.91 4.6758 16.559 5.1445 4.3828 0.36719 8.6133-0.14453 12.574-2.1289 5.1289-2.5703 10.445-4.5977 15.586-6.957 3.5078 5.9766 8.1367 11.211 14.121 14.605 3.7617 2.1367 8.0742 3.3906 12.574 3.9062-1.2031 1.2383-2.3438 2.5195-3.4453 3.8281-0.039062-0.019531-0.050781-0.066406-0.097656-0.082031-8.5586-2.4883-18.664-3.5547-27.52-1.9258zm29.984 20.492c-4.0234 3.5234-7.8633 7.1406-11.48 10.969 0.41406-4 0.90234-7.9883 2.2109-11.867 2.6094-7.6992 7.0586-14.863 12.199-21.234 5.5977 0.39062 11.402-0.31641 16.758-1.8984 0.53906 2.0703 1.1172 4.1406 1.7109 6.2422l0.60938 2.1641c-2.5586 1.7188-5.7227 3.0117-8.1211 4.6172-0.55859 0.375-1.1016 0.78516-1.6523 1.1719-0.003906-0.035156-0.011718-0.078125-0.015624-0.11328-0.097657-0.49219-0.76953-0.37891-0.75391 0.10938 0.003907 0.18359-0.011719 0.375-0.015625 0.5625-3.9805 2.8711-7.7695 6.0547-11.449 9.2773zm-28.648 114.5c7.6797 2.7461 14.273 10.082 20.543 15.129 5.3672 4.3203 11.023 10.723 17.379 13.82-18.438 0.39844-37.598-2.6523-51.508-15.148-7.1406-6.4141-14.012-13.902-19.324-21.945-3.8711-5.8672-6.3594-12.172-8.6172-18.621 8.2227 5.6797 16.793 10.844 25.035 16.488 0.54297 0.375 1.1328-0.39844 0.62109-0.82031-7.8047-6.3477-15.691-12.469-24.277-17.719 20.086-1.6641 41.051 5.7617 55.609 19.363 10.613 9.9219 17.719 22.809 22.637 36.465-5.4492-5.8203-11.34-10.797-17.816-15.602-5.9141-4.3867-12.887-9.957-20.031-11.992-0.39062-0.10938-0.63672 0.44531-0.25 0.58203zm58.918 37.391c-5.9297-20.547-11.598-42.781-4.1367-62.699 5.4688-14.602 18.395-21.914 30.867-29.812 7.1289-4.5156 14.605-8.6211 21.773-13.16 0.039063 0.22656 0.078125 0.44531 0.12109 0.67188 1.4531 7.2461 3.3828 14.27 3.8555 21.688 0.90625 14.25-2.0898 28.871-7.6445 41.965-5.125 12.078-12.66 22.184-23.086 30.188-5.5977 4.2969-11.766 7.6328-17.875 11.027 6.4727-13.102 8.2891-28.605 13.672-42.168 3.6133-9.1094 7.7305-18.043 12.156-26.793 3.6133-7.1523 6.2344-14.934 10.082-21.902 0.25-0.44922-0.42578-0.92578-0.79297-0.59766-4.4141 3.9336-6.1836 10.133-8.9531 15.242-4.5664 8.4258-8.9648 16.902-12.734 25.719-3.7422 8.75-7.1523 17.695-9.6289 26.887-2.1758 8.0938-3.6758 16.324-7.6758 23.746zm52.371 21.48c-10.055 0.44531-20.383-0.0625-29.812-3.918-7.7461-3.168-13.039-8.7227-19.047-14.184 0.60547-0.26172 1.2031-0.52734 1.8086-0.79297-0.046875 0.34375 0.3125 0.6875 0.66016 0.40625 0.80469-0.64453 1.6641-1.2539 2.5508-1.8438 2.9492-1.3398 5.8672-2.7539 8.7305-4.3516 14.027-5.3359 32.375-5.9648 45.055-4.3711 12.395 1.5508 22.621 6.0352 32.113 12.16-11.902 10.09-24.633 16.117-42.059 16.895z"/>
</svg>
