<?xml version="1.0" encoding="UTF-8"?>
<svg width="512pt" height="512pt" version="1.1" viewBox="0 0 512 512" xmlns="http://www.w3.org/2000/svg">
 <path d="m414.81 295.37c-18.363-4.0625-37.164-4.2383-54.906-1.0586 0.61719-0.53125 1.2344-1.1484 1.8555-1.6758 6.5312-5.6484 13.242-11.477 18.449-18.98 5.6484-8.1211 12.184-20.832 11.477-35.488-0.79297-17.301-12.445-34.34-29.66-43.434-6.2695-3.3555-13.328-5.6484-20.922-6.9727 6.3555-4.2383 10.68-9.7969 11.562-18.008 0.089844-1.0586-0.26562-2.207-0.97266-3-0.70703-0.79297-1.6758-1.3242-2.8242-1.4141-14.125-0.79297-26.836-0.53125-38.398 0.79297 12.711-22.688 18.715-47.582 18.098-75.301 0-1.4141-0.79297-2.7383-2.0312-3.4414-1.2344-0.70703-2.7383-0.61719-3.9727 0.089844-13.598 8.3008-25.074 18.449-34.781 30.281-0.53125-20.215-7.8555-34.074-15.801-48.816-3.707-6.8867-7.5898-14.035-11.035-22.246-0.62109-1.6797-2.207-2.6484-3.8867-2.5625-1.6758 0.089843-3.1797 1.3242-3.6211 2.9141-4.0625 15.094-11.035 25.16-17.832 34.867-7.0625 10.152-13.859 20.125-16.949 34.691-9.5352-11.387-20.832-21.098-34.164-29.133-1.2344-0.70703-2.7383-0.79297-3.9727-0.089843-1.2344 0.70703-2.0312 1.9414-2.0312 3.4414-0.61719 28.07 5.6484 53.23 18.625 76.184-13.328-2.0312-28.16-2.5586-45.109-1.6758-1.0586 0.089843-2.1172 0.53125-2.8242 1.4141-0.70703 0.79297-1.0586 1.9414-0.97266 3 0.79297 7.5898 4.5898 12.887 10.238 16.949-5.2969 1.3242-10.328 3-14.918 5.4727-17.215 9.0938-28.777 26.129-29.574 43.434-0.70703 14.566 5.9141 27.367 11.477 35.488 5.1211 7.5039 11.918 13.328 18.449 18.98 1.3242 1.1484 2.5586 2.2969 3.7969 3.3555-16.418-2.3828-33.723-1.8555-50.492 1.8555-1.9414 0.44141-3.2656 2.207-3.0898 4.1484s1.6758 3.5312 3.707 3.707c18.625 1.4141 37.43 9.8867 53.055 23.922 13.77 12.27 25.246 28.777 34.074 48.992 1.9414 4.4141 3.707 8.8281 5.4727 13.328 3.4414 8.6523 6.9727 17.566 11.652 25.953-0.35156-0.44141 4.1484 6.6211 4.1484 6.6211 0.35156 0.53125 0.61719 1.0586 0.97266 1.5898 6.9727 9.7969 18.715 19.863 32.574 22.953v17.215c0 2.207 1.7656 3.9727 3.9727 3.9727 2.207 0 3.9727-1.7656 3.9727-3.9727l0.007813-126.94c2.1172-0.53125 4.3242-0.97266 6.707-0.97266 2.2969 0 4.3242 0.35156 6.3555 0.79297v127.21c0 2.207 1.7656 3.9727 3.9727 3.9727s3.9727-1.7656 3.9727-3.9727v-16.773c15.273-2.1172 28.336-12.977 35.84-23.48 0.35156-0.53125 0.61719-1.0586 0.97266-1.5898l4.8555-7.9453c4.3242-7.9453 7.7695-16.332 11.035-24.629 1.7656-4.5039 3.5312-9.0039 5.4727-13.328 8.9141-20.215 20.391-36.723 34.074-48.992 15.625-14.035 34.516-22.512 53.055-23.922 1.9414-0.17578 3.5312-1.6758 3.707-3.707 0.35156-1.8555-0.97266-3.6211-2.9141-4.0625zm-56.41-93.574c14.742 7.7695 24.719 22.156 25.336 36.723 0.53125 12.359-5.207 23.48-10.062 30.543-4.5898 6.6211-10.68 11.918-17.125 17.48-1.7656 1.5-3.5312 3.0898-5.2969 4.5898-13.508-7.4141-25.512-19.863-32.398-33.723-6.707-13.594-9.0938-29.043-6.9727-43.961 19.508 0.61719 24.098 15.359 25.07 24.539 0.17578 2.0312 1.9414 3.6211 3.9727 3.6211h0.44141c2.207-0.17578 3.7969-2.207 3.5312-4.3242-2.1172-21.008-15.801-32.84-36.633-31.867 0 0-7.2383 0.88281-10.68 1.5898 0.61719-0.70703 0.97266-1.5898 1.0586-2.4727 5.2969-1.9414 10.418-3.6211 15.359-5.207 4.7656-1.5898 9.4453-3.0898 13.77-4.6797 9.7969 0 20.566 1.8555 30.629 7.1484zm-156.51 9.5352c4.5039 0.61719 9.0039 1.6758 13.328 3 2.2969 2.1172 4.7656 4.2383 7.3281 6.2695-21.273 28.426-36.371 62.766-14.391 99.574-4.4141-3.707-9.0039-7.1484-13.949-10.152-10.68-6.707-22.953-11.477-36.016-14.391 14.832-8.2109 27.984-21.805 35.574-37.074 7.332-14.652 10.156-31.16 8.125-47.227zm16.684-4.8555c3-0.35156 6.4453-0.44141 10.418-0.26562 1.2344 0 2.3828-0.53125 3.1797-1.4141 5.207-6.2695 12.094-11.477 20.391-15.359 8.2969 3.8828 15.184 9.0938 20.215 15.359 0.79297 0.97266 2.0312 1.4141 3.1797 1.5 4.0625-0.089844 7.5039 0 10.504 0.35156-9.0938 8.5625-18.715 16.949-33.984 16.949-15.277-0.17188-24.898-8.5586-33.902-17.121zm85.188 7.3281c-2.0312 16.066 0.79297 32.574 8.0312 47.141 7.4141 14.918 20.125 28.25 34.516 36.457-10.328 3-20.039 7.0625-28.602 12.445-7.8555 4.9453-15.008 10.77-21.539 17.215 29.219-40.344 12.27-77.949-11.211-108.58 6.0938-2.1211 12.449-3.7969 18.805-4.6797zm40.078-40.695c-3.3555 8.6523-14.477 12.625-32.309 18.449-6.4453 2.1172-13.594 4.5898-20.922 7.5039-1.4141-0.26562-2.8242-0.44141-4.4141-0.53125 7.2383-7.5898 13.508-15.449 18.891-23.57 11.477-1.7656 24.273-2.3828 38.754-1.8516zm-23.129-74.859c-0.79297 38.047-15.449 70.531-44.051 98.867-2.207-2.3828-4.6797-4.6797-7.3281-6.707 10.594-24.277 15.977-43.078 17.832-58.352 8.918-13.414 20.039-24.715 33.547-33.809zm-78.566-11.652c5.6484-8.0312 11.387-16.332 15.715-27.453 2.2969 4.7656 4.7656 9.1797 7.0625 13.594 14.391 26.66 25.777 48.109-2.3828 113.17-2.6484-1.5898-5.4727-3.0898-8.4727-4.4141-1.0586-0.44141-2.207-0.44141-3.1797 0-0.44141 0.17578-0.79297 0.44141-1.2344 0.61719-5.1211-21.891-13.152-40.695-24.363-56.586 1.9375-17.207 9.0859-27.801 16.855-38.926zm-55.789 11.652c28.07 18.891 46.078 46.961 55.172 84.746-9.7969-6.3555-20.922-10.945-33.809-13.949-13.598-21.363-20.746-44.754-21.363-70.797zm-29.133 74.859c34.781-1.5 60.469 3.7969 79.801 16.242 0.26562-0.26562-6.6211 5.3867-9.7109 8.8281-6.3555-0.089844-11.387 0.44141-15.535 1.4141-7.8555-3.2656-15.449-5.8281-22.332-8.0312-17.746-5.7422-28.867-9.8008-32.223-18.453zm-25.246 93.484c-4.9453-7.1484-10.68-18.184-10.062-30.543 0.70703-14.566 10.594-28.953 25.336-36.723 7.0625-3.707 14.477-5.6484 21.715-6.6211 5.4727 2.3828 25.336 8.9141 29.219 10.238-0.26563 0-0.79297-0.089843-0.88281-0.089843-20.922-0.97266-34.516 10.859-36.633 31.867-0.17578 2.207 1.4141 4.1484 3.5312 4.3242h0.44141c2.0312 0 3.7969-1.5 3.9727-3.6211 0.88281-9.1797 5.6484-23.922 25.07-24.539 2.1172 14.918-0.26563 30.457-6.9727 43.961-6.8867 13.949-18.891 26.395-32.398 33.723-1.7656-1.5898-3.5312-3.0898-5.2969-4.5898-6.3594-5.4688-12.449-10.766-17.039-17.387zm107.87 145.83c-3-2.6484-5.7383-5.5625-8.1211-8.9141-6.9727-9.7109-11.301-20.746-15.977-32.484-1.8555-4.5898-3.6211-9.1797-5.5625-13.594-0.88281-2.0312-3.2656-2.9141-5.2969-2.0312-2.0312 0.88281-2.9141 3.2656-2.0312 5.2969 1.9414 4.4141 3.707 8.9141 5.4727 13.328 4.5898 11.652 9.3555 23.656 16.859 34.164 4.0625 5.7383 9.1797 10.68 14.652 14.566v15.715c-10.945-3.0898-20.305-11.387-26.043-19.422-6.9727-9.7109-11.301-20.832-15.977-32.484-1.8555-4.5898-3.6211-9.0938-5.5625-13.594-9.3555-21.273-21.539-38.664-36.105-51.73-10.594-9.4453-22.512-16.598-34.957-21.008 25.07-1.2344 49.789 4.5039 68.945 16.508 23.215 14.566 40.871 37.074 49.789 62.852l0.003906 32.832zm0-52.965c-2.9141-5.5625-6.1797-10.859-9.7969-15.891 0.61719 0.089844 1.2344 0.35156 1.8555 0.35156 2.2969 0 4.5898-0.79297 6.5312-2.2969 0.53125-0.35156 0.97266-0.70703 1.5-1.0586v18.895zm14.742-31.605c-8.0312 0-14.918 2.4727-21.188 7.5898-0.88281 0.79297-2.3828 0.61719-3.2656-0.26562-32.574-33.191-33.016-66.738-0.79297-110.17 6.4453 3.707 13.949 6.3555 23.215 6.3555 10.594 0 18.891-3.4414 25.953-8.1211 33.633 44.227 33.633 78.211 0.53125 111.93-0.88281 0.88281-2.3828 0.97266-3.2656 0.26562-6.3555-5.1172-13.242-7.5898-21.188-7.5898zm29.043 13.684c-5.8281 7.7695-10.77 16.156-14.742 25.07v-26.129c0.61719 0.44141 1.1484 0.70703 1.7656 1.2344 3.7109 3.0039 9.1836 2.8242 12.977-0.17578zm72.211-20.391c-14.566 13.066-26.746 30.457-36.105 51.73-1.9414 4.5039-3.7969 9.0938-5.5625 13.594-4.6797 11.742-9.0039 22.773-15.977 32.484-6.2695 8.8281-17.039 18.008-29.309 20.125v-14.301c6.707-4.1484 13.066-9.9766 17.922-16.773 7.5039-10.504 12.27-22.512 16.859-34.164 1.7656-4.5039 3.5312-8.9141 5.4727-13.328 0.88281-2.0312 0-4.3242-2.0312-5.2969-2.0312-0.88281-4.3242 0-5.2969 2.0312-1.9414 4.5039-3.7969 9.0039-5.5625 13.594-4.6797 11.742-9.0039 22.773-15.977 32.484-3.2656 4.5039-7.1484 8.4727-11.387 11.742v-24.98c7.4141-30.191 26.66-57.027 53.055-73.535 19.156-12.004 43.785-17.742 68.945-16.508-12.535 4.5039-24.453 11.656-35.047 21.102z"/>
</svg>
