<?xml version="1.0" encoding="UTF-8"?>
<svg width="15px" height="15px" version="1.1" viewBox="0 0 1200 1200"
    xmlns="http://www.w3.org/2000/svg">
    <path
        d="m30.48 461.76c-6.3359 19.164-7.125 39.727-2.2852 59.32 4.8398 19.598 15.117 37.426 29.645 51.438l192.6 187.8-45.48 265.08c-4.8633 26.766 0.55469 54.379 15.168 77.32 14.609 22.945 37.344 39.531 63.652 46.441s54.258 3.6406 78.258-9.1602l237.96-125.64 237.96 125.64c15.488 7.9141 32.645 12.031 50.039 12 31.926 0.050781 62.242-14.027 82.801-38.453 20.559-24.426 29.258-56.695 23.758-88.148l-45-265.08 192.6-187.8c19.43-18.852 31.074-44.312 32.621-71.344 1.5469-27.027-7.1133-53.652-24.27-74.602-17.152-20.945-41.547-34.684-68.352-38.496l-266.16-38.637-118.92-241.44c-11.887-24.387-32.512-43.402-57.781-53.273-25.27-9.8711-53.324-9.8711-78.594 0-25.27 9.8711-45.895 28.887-57.781 53.273l-118.92 241.44-266.28 38.637c-19.973 2.9062-38.734 11.348-54.152 24.367-15.422 13.023-26.883 30.109-33.086 49.316zm91.32 30.238c1.3789-4.3984 5.1562-7.6172 9.7188-8.2812l291.24-42.359h0.003907c15.586-2.3203 29.039-12.141 36-26.281l130.2-264c5.5195-11.281 16.32-11.281 21.84 0l130.2 264c6.957 14.141 20.414 23.961 36 26.281l291 41.762c4.8008 0.33594 8.9375 3.5078 10.504 8.0586 1.5703 4.5508 0.26953 9.5977-3.3047 12.82l-211.2 205.2c-11.309 11.027-16.469 26.914-13.801 42.48l49.801 289.92c0.875 4.5938-1 9.2734-4.8008 12-3.7344 2.8711-8.8008 3.293-12.961 1.0781l-259.92-137.04c-13.977-7.3398-30.664-7.3398-44.641 0l-260.28 136.8c-4.0742 2.1523-9.0234 1.7852-12.734-0.95312-3.707-2.7383-5.5195-7.3594-4.6641-11.887l49.68-289.92c2.6992-15.547-2.4141-31.43-13.68-42.48l-211.2-205.2c-3.1445-3.1367-4.2969-7.7539-3-12z" />
</svg>