<?xml version="1.0" encoding="UTF-8"?>
<svg width="1200pt" height="1200pt" version="1.1" viewBox="0 0 1200 1200"
    xmlns="http://www.w3.org/2000/svg">
    <g fill="#D17BB5">
        <path
            d="m1024.7 270.48h-21.719c33.43-27.367 52.887-68.242 53.047-111.45 0.16016-43.203-18.996-84.223-52.223-111.84-33.23-27.613-77.059-38.938-119.5-30.875-29.531 5.168-56.664 19.57-77.492 41.133-20.828 21.562-34.285 49.176-38.43 78.867-8.0898 50.754 11.48 101.98 51.359 134.4h-4.8008 0.003906c-28.949 0.003906-57.383 7.6094-82.469 22.055-25.082 14.445-45.93 35.23-60.453 60.266l-32.762 56.762-82.199-49.801c-19.91-11.656-43.582-15.094-65.988-9.582s-41.781 19.539-54.012 39.102c-12.426 20.059-16.301 44.258-10.754 67.191 5.5508 22.934 20.055 42.688 40.273 54.848l147.48 90c20.801 12.266 45.277 16.754 69.074 12.664 23.797-4.0859 45.371-16.48 60.887-34.984v146.52c0 10.715 5.7188 20.621 15 25.98 9.2812 5.3594 20.719 5.3594 30 0 9.2812-5.3594 15-15.266 15-25.98v-233.16c0.003906-8.3828-3.5-16.383-9.6641-22.066-6.1602-5.6797-14.418-8.5273-22.773-7.8477-8.3555 0.68359-16.043 4.8281-21.203 11.434l-51.48 65.879c-6.2422 7.9453-15.156 13.359-25.086 15.234-9.9297 1.875-20.203 0.085937-28.914-5.0352l-147.36-90.598c-8.7031-5.125-14.012-14.5-13.926-24.602 0.085938-10.098 5.5508-19.383 14.34-24.359 8.7891-4.9766 19.562-4.8828 28.266 0.23828l108 66c6.9102 4.2148 15.234 5.4609 23.074 3.4492 7.8398-2.0117 14.539-7.1055 18.566-14.129l48-83.281v0.003906c18.734-32.398 53.297-52.379 90.719-52.441h19.922c15.949 0.003906 31.113-6.9062 41.578-18.941 10.461-12.035 15.195-28.016 12.977-43.809-2.2227-15.793-11.18-29.848-24.555-38.531-13.688-8.875-24.496-21.547-31.102-36.465-6.6055-14.914-8.7266-31.434-6.0977-47.535 2.4453-17.25 10.285-33.285 22.398-45.809 12.117-12.523 27.879-20.891 45.039-23.91 25.879-5.0039 52.613 2.3203 72.324 19.82 19.711 17.496 30.156 43.168 28.258 69.457-1.8945 26.289-15.922 50.199-37.941 64.684-13.324 8.7227-22.223 22.793-24.391 38.574-2.1719 15.777 2.5938 31.727 13.07 43.727 10.477 12 25.633 18.879 41.562 18.859h36.84c28.98 0.03125 56.77 11.559 77.266 32.051 20.492 20.496 32.02 48.285 32.055 77.27v230.4c0 9.8594-5.2617 18.973-13.801 23.902-8.5391 4.9297-19.062 4.9297-27.602 0-8.5391-4.9297-13.801-14.043-13.801-23.902v-180c0-10.719-5.7148-20.621-15-25.98-9.2812-5.3594-20.715-5.3594-30 0-9.2812 5.3594-15 15.262-15 25.98v180c0 31.297 16.699 60.215 43.801 75.863 27.105 15.648 60.496 15.648 87.602 0 27.102-15.648 43.801-44.566 43.801-75.863v-230.52c-0.035157-44.855-17.852-87.867-49.543-119.61-31.695-31.738-74.684-49.617-119.54-49.711z" />
        <path
            d="m36 1186.1c7.957 0 15.586-3.1602 21.215-8.7852 5.625-5.625 8.7852-13.258 8.7852-21.215v-33.359c0.03125-20.199 8.0703-39.562 22.355-53.844 14.281-14.285 33.645-22.324 53.844-22.355 16.102-0.039062 31.406-7.0156 41.996-19.145 10.59-12.129 15.438-28.234 13.301-44.195-2.1367-15.957-11.051-30.223-24.457-39.141-21.148-14.215-33.871-37.996-33.961-63.48 0.43359-19.82 8.3633-38.742 22.191-52.949s32.527-22.641 52.332-23.609c22.363-0.70703 43.926 8.3789 59.047 24.875 15.117 16.5 22.289 38.773 19.637 60.992-2.6562 22.219-14.867 42.176-33.445 54.652-13.344 8.9531-22.195 23.211-24.293 39.145-2.0938 15.934 2.7617 31.996 13.34 44.098 10.574 12.098 25.844 19.062 41.914 19.117 20.199 0.03125 39.562 8.0703 53.844 22.355 14.285 14.281 22.324 33.645 22.355 53.844v33.363c0 10.715 5.7188 20.621 15 25.98s20.719 5.3594 30 0 15-15.266 15-25.98v-33.723c0.03125-20.199 8.0703-39.562 22.355-53.844 14.281-14.285 33.645-22.324 53.844-22.355 16.102-0.039062 31.406-7.0156 41.996-19.145 10.59-12.129 15.438-28.234 13.301-44.195-2.1367-15.957-11.051-30.223-24.457-39.141-21.121-14.227-33.801-38.012-33.84-63.48 0.43359-19.82 8.3633-38.742 22.191-52.949s32.527-22.641 52.328-23.609c22.367-0.70703 43.93 8.3789 59.051 24.875 15.117 16.5 22.285 38.773 19.633 60.992s-14.863 42.176-33.441 54.652c-13.348 8.9531-22.195 23.211-24.293 39.145-2.0977 15.934 2.7617 31.996 13.336 44.098 10.578 12.098 25.848 19.062 41.918 19.117 20.199 0.03125 39.562 8.0703 53.844 22.355 14.285 14.281 22.324 33.645 22.355 53.844v33.363c0 10.715 5.7188 20.621 15 25.98s20.719 5.3594 30 0 15-15.266 15-25.98v-33.723c0.03125-20.199 8.0703-39.562 22.352-53.844 14.285-14.285 33.648-22.324 53.848-22.355 16.102-0.039062 31.406-7.0156 41.996-19.145 10.586-12.129 15.434-28.234 13.297-44.195-2.1367-15.957-11.047-30.223-24.453-39.141-21.168-14.199-33.895-37.988-33.961-63.48 0.43359-19.82 8.3633-38.742 22.191-52.949s32.527-22.641 52.328-23.609c22.367-0.70703 43.93 8.3789 59.051 24.875 15.117 16.5 22.285 38.773 19.633 60.992s-14.863 42.176-33.441 54.652c-13.348 8.9531-22.195 23.211-24.293 39.145-2.0977 15.934 2.7617 31.996 13.336 44.098 10.578 12.098 25.848 19.062 41.918 19.117 20.199 0.03125 39.562 8.0703 53.844 22.355 14.285 14.281 22.324 33.645 22.355 53.844v33.363c0 10.715 5.7188 20.621 15 25.98s20.719 5.3594 30 0 15-15.266 15-25.98v-33.723c-0.046875-34.055-12.828-66.863-35.832-91.977-23.004-25.113-54.566-40.719-88.488-43.742 29.676-23.809 48.105-58.887 50.875-96.832 2.7695-37.945-10.371-75.328-36.277-103.2-25.902-27.863-62.234-43.691-100.28-43.691-38.047 0-74.375 15.828-100.28 43.691-25.902 27.867-39.047 65.25-36.277 103.2 2.7695 37.945 21.203 73.023 50.879 96.832-37.082 3.2539-71.211 21.555-94.441 50.641-23.199-29.059-57.281-47.355-94.32-50.641 29.625-23.801 48.016-58.852 50.762-96.75 2.75-37.902-10.391-75.238-36.273-103.06-25.879-27.828-62.168-43.633-100.17-43.633s-74.289 15.805-100.17 43.633c-25.883 27.824-39.023 65.16-36.273 103.06 2.7461 37.898 21.137 72.949 50.762 96.75-37.039 3.2852-71.121 21.582-94.32 50.641-23.199-29.059-57.281-47.355-94.32-50.641 29.625-23.801 48.016-58.852 50.762-96.75 2.75-37.902-10.391-75.238-36.273-103.06-25.879-27.828-62.168-43.633-100.17-43.633s-74.289 15.805-100.17 43.633c-25.883 27.824-39.023 65.16-36.273 103.06 2.7461 37.898 21.137 72.949 50.762 96.75-33.922 3.0234-65.488 18.629-88.492 43.742-23.004 25.113-35.781 57.922-35.828 91.977v33.359c0 7.957 3.1602 15.59 8.7852 21.215 5.6289 5.625 13.258 8.7852 21.215 8.7852z" />
        <path
            d="m103.8 73.922h612c10.719 0 20.621-5.7188 25.98-15 5.3594-9.2852 5.3594-20.719 0-30-5.3594-9.2852-15.262-15-25.98-15h-612c-25.91 0.03125-50.746 10.328-69.078 28.637-18.332 18.309-28.66 43.133-28.723 69.043v471.96c0.03125 25.93 10.348 50.789 28.68 69.121 18.336 18.336 43.191 28.648 69.121 28.68h433.56c10.719 0 20.621-5.7188 25.98-15s5.3594-20.719 0-30-15.262-15-25.98-15h-433.56c-10.027 0-19.641-3.9805-26.73-11.07-7.0859-7.0898-11.07-16.703-11.07-26.73v-471.96c0.03125-10.008 4.0273-19.59 11.113-26.652 7.0859-7.0625 16.684-11.027 26.688-11.027z" />
    </g>
</svg>