<?xml version="1.0" encoding="UTF-8"?>
<svg width="512pt" height="512pt" version="1.1" viewBox="0 0 512 512" xmlns="http://www.w3.org/2000/svg">
 <g fill="#d2d2d2">
  <path d="m414.62 97.359c-129.36-131.34-358.45-52.91-380.84 130.2-6.0508 47.375 3.2148 95.445 26.438 137.18 2.832 4.7969 3.4961 10.574 1.8242 15.891l-29.594 88.773c-0.91406 2.8711-0.14844 6.0117 1.9805 8.1406 2.1328 2.1328 5.2734 2.8945 8.1445 1.9805l88.773-29.59c5.3125-1.668 11.082-1.0078 15.883 1.8125 41.742 23.211 89.812 32.477 137.2 26.449 180.16-29.301 263.12-247.91 130.2-380.84zm-259.6 340.41c-8.7383-4.9844-19.164-6.0742-28.742-3.0078l-73.586 24.527 24.527-73.59c3.0625-9.582 1.9648-20.008-3.0195-28.746-72.148-125.27 11.73-291.04 155.5-307.57 132.7-18.676 251.63 100.17 232.9 232.9-22.844 139.81-180.33 228.69-307.58 155.49z"/>
  <path d="m149.18 137.09c-102.9 91.391-46.508 265.25 92.289 278.09 93.457 9.75 175.71-68.156 174.73-159.33 0.39062-137.75-165.56-211.29-267.02-118.76zm9.7812 12.711c4.5742 0.19531 13.008-1.5859 13.133 5.4023v11.207c0.003906 5.6758 2.2617 11.117 6.2773 15.129 4.0117 4.0117 9.4531 6.2695 15.129 6.2773 5.7305 0.59375 16.301-2.5469 16.609 5.3984v19.062c0.875 3.0391-9.8008 11.5-12.793 15.031l-0.003906 0.003906c-4.0234 4.0234-6.2812 9.4805-6.2734 15.172 0.011719 5.6914 2.2852 11.145 6.3242 15.156 4.0391 4.0078 9.5078 6.2422 15.199 6.2109 1.4297 0.007813 2.8008 0.57422 3.8164 1.5781l27.262 27.262c1.6406 1.6445 2.0469 4.1523 1.0078 6.2305l-25.379 50.766c-0.78516 1.5391-2.2578 2.6133-3.9648 2.8906-1.707 0.27734-3.4453-0.27344-4.6797-1.4844l-20.945-20.945c-1.0078-1.0156-1.5742-2.3867-1.582-3.8164v-19.062c-0.003906-5.6758-2.2617-11.117-6.2773-15.129-4.0117-4.0117-9.4531-6.2695-15.129-6.2773-7.957 0.28125-15.926 0.089844-23.863-0.5625l-30.031-14.977c-4.4805-45.207 12.629-89.879 46.164-120.52zm97.168 250.11c-0.4375 0-0.85937-0.0625-1.3008-0.066406l7.043-14.027c3.6875-6.0391 1.8789-24.18 2.2578-31.031l0.003907 0.003906c0.003906-2.9844 2.4219-5.3984 5.4023-5.4023h19.102c3.082-0.80078 11.309 9.6602 14.961 12.762 4.0508 3.9609 9.5 6.1641 15.164 6.1328s11.09-2.293 15.094-6.2969c4.0078-4.0039 6.2773-9.4258 6.3125-15.09 0.007813-1.4062 0.56641-2.7539 1.5547-3.7539l30.219-30.219v0.003906c0.99609-0.98828 2.3438-1.5469 3.75-1.5547h13.348c-10.977 26.203-29.445 48.586-53.086 64.336-23.645 15.75-51.414 24.168-79.824 24.203zm138.42-104.55c-10.191 0.46094-26.406-2.5195-33.93 6.2461l-30.215 30.215c-4.0234 4.0586-6.2695 9.5508-6.2461 15.266 0.039063 2.1719-1.2852 4.1406-3.3125 4.9219-2.0273 0.90234-4.4062 0.42969-5.9336-1.1797-7.0117-6.6719-15.406-18.23-26.277-17.453h-19.102c-5.6758 0.007813-11.117 2.2656-15.129 6.2773-4.0156 4.0156-6.2734 9.457-6.2812 15.133v21.477c-3.0859 7.6328-6.6172 15.082-10.57 22.309-28.793-3.7969-55.773-16.195-77.406-35.574-21.629-19.379-36.91-44.84-43.832-73.043 6.7305 2.8516 21.492 12.461 28.922 11.91h21.457l-0.003907-0.003907c2.9805 0.003907 5.3984 2.4219 5.4023 5.4023v19.062c-0.015625 5.6797 2.2422 11.129 6.2656 15.133l20.949 20.945c4.8945 4.8047 11.781 6.9922 18.547 5.8906 6.7695-1.0977 12.609-5.3516 15.734-11.453l25.379-50.766c2.0117-4.0156 2.707-8.5664 1.9883-13-0.71875-4.4375-2.8203-8.5312-6-11.707l-27.262-27.262c-4.0391-4.0469-9.5312-6.3086-15.25-6.2695-2.1836 0-4.1523-1.3125-4.9883-3.332-0.83594-2.0156-0.37109-4.3398 1.1758-5.8828l11.215-11.215c8.8125-7.4102 5.8047-24.184 6.2695-34.195-0.007813-5.6758-2.2656-11.117-6.2773-15.133-4.0156-4.0117-9.457-6.2695-15.133-6.2773h-11.207c-7.9844-0.35156-4.7891-10.883-5.4023-16.609-0.011718-3.9766-1.1367-7.875-3.2461-11.25-2.1094-3.3711-5.1172-6.0898-8.6875-7.8477 10.531-7.0195 21.945-12.617 33.945-16.648-1.0781 7.5547 1.1367 15.207 6.0898 21.012 4.9492 5.8047 12.152 9.207 19.781 9.3359 2.9609-0.53906 6.0039 0.24609 8.3398 2.1406 2.332 1.8945 3.7227 4.7148 3.8047 7.7227v12.746c-0.25781 3.7031-2.1523 7.0938-5.1641 9.2539-4.7734 4.8867-7.4297 11.453-7.4023 18.285 0.03125 6.8281 2.7461 13.371 7.5625 18.215 4.8125 4.8438 11.34 7.5977 18.168 7.668 3.7539 0.054687 7.1562 2.2109 8.8047 5.5781 1.6484 3.3711 1.2656 7.3828-0.99609 10.375-2.7031 4.1953-4.1406 9.0781-4.1367 14.066 0 4.9883 1.4375 9.8711 4.1445 14.066l13.047 20.141h-0.003906c4.7578 7.375 12.938 11.824 21.715 11.809h20.898c6.8594-0.019531 13.434-2.7461 18.297-7.582l27.543-27.543h0.003906c1.8555-1.8438 4.3633-2.8828 6.9766-2.8906h22.207c-0.56641 10.668-2.3203 21.238-5.2383 31.516zm-16.969-47.523c-6.8594 0.023437-13.434 2.7461-18.297 7.582l-27.543 27.543c-1.8555 1.8477-4.3633 2.8867-6.9805 2.8945h-20.898c-3.3477 0-6.4688-1.6953-8.2852-4.5117l-13.039-20.133c-2.2617-3.5391-2.0742-8.1133 0.46875-11.453 3.3281-5.2461 4.6641-11.516 3.7734-17.664-0.89453-6.1484-3.9609-11.777-8.6445-15.863s-10.672-6.3594-16.887-6.4102c-4.0156 0.050781-7.6562-2.3516-9.1914-6.0586-1.5352-3.7109-0.65625-7.9844 2.2188-10.785 6.125-5.0977 9.7227-12.605 9.8555-20.574v-12.746c-0.007813-6.8594-2.7344-13.434-7.5859-18.285-4.8516-4.8477-11.426-7.5781-18.285-7.5859-2.957 0.53906-6.0039-0.24609-8.3398-2.1406-2.3359-1.8945-3.7227-4.7188-3.8047-7.7227v-8.9531c41.102-8.5586 83.895 1.1836 117.24 26.695 33.344 25.508 53.945 64.262 56.434 106.17z"/>
 </g>
</svg>
